<svg width="48" height="48" viewBox="0 0 48 48" fill="none" xmlns="http://www.w3.org/2000/svg">
<path d="M23.9995 19.6362V28.9308H36.9158C36.3487 31.9199 34.6466 34.4509 32.094 36.1527L39.883 42.1964C44.4212 38.0074 47.0394 31.8546 47.0394 24.5456C47.0394 22.8438 46.8867 21.2073 46.603 19.6365L23.9995 19.6362Z" fill="#4285F4"/>
<path d="M10.5492 28.5679L8.7925 29.9126L2.57422 34.7562C6.5233 42.5888 14.6172 47.9998 23.999 47.9998C30.4788 47.9998 35.9115 45.8616 39.8825 42.1963L32.0934 36.1526C29.9552 37.5926 27.2279 38.4654 23.999 38.4654C17.759 38.4654 12.4574 34.2545 10.559 28.5817L10.5492 28.5679Z" fill="#34A853"/>
<path d="M2.57436 13.2437C0.938084 16.4726 0 20.1163 0 23.9999C0 27.8834 0.938084 31.5271 2.57436 34.7561C2.57436 34.7778 10.5599 28.5597 10.5599 28.5597C10.08 27.1197 9.79624 25.5926 9.79624 23.9996C9.79624 22.4067 10.08 20.8795 10.5599 19.4395L2.57436 13.2437Z" fill="#FBBC05"/>
<path d="M23.9995 9.55636C27.5341 9.55636 30.6758 10.7781 33.1849 13.1345L40.0576 6.2619C35.8903 2.37833 30.4796 0 23.9995 0C14.6177 0 6.5233 5.38908 2.57422 13.2437L10.5596 19.44C12.4576 13.7672 17.7595 9.55636 23.9995 9.55636Z" fill="#EA4335"/>
</svg>
